<svg width="20" height="20" viewBox="0 0 20 20" fill="none" xmlns="https://www.w3.org/2000/svg">
<path d="M10 0.25C4.62391 0.25 0.25 4.62391 0.25 10C0.25 15.3761 4.62391 19.75 10 19.75C15.3761 19.75 19.75 15.3761 19.75 10C19.75 4.62391 15.3761 0.25 10 0.25ZM16.5925 14.1287H14.4002L13.6084 12.7694L14.3116 9.93625L15.7089 9.34375L17.7081 11.0645C17.5584 12.1537 17.1781 13.1983 16.5925 14.1287ZM4.29109 9.34375L5.6875 9.93766L6.39062 12.7708L5.59891 14.1302H3.4075C2.8221 13.2001 2.44176 12.156 2.29187 11.0673L4.29109 9.34375ZM15.9662 5.00922L15.1033 7.46219L13.6445 8.08L10.9844 5.84969V4.20906L13.0403 2.83938C14.1729 3.32271 15.1754 4.06665 15.9662 5.01062V5.00922ZM6.95969 2.8375L9.01562 4.20719V5.84781L6.35547 8.07953L4.89672 7.46172L4.03375 5.00875C4.82455 4.06477 5.82706 3.32084 6.95969 2.8375ZM8.19906 17.5703L7.25688 15.1956L8.00688 13.9061H11.9913L12.7441 15.1966L11.8066 17.5684C10.62 17.8509 9.38373 17.8509 8.19719 17.5684L8.19906 17.5703Z" fill="url(#paint0_linear_468_1374)"/>
<defs>
<linearGradient id="paint0_linear_468_1374" x1="10" y1="-4.44104" x2="10" y2="35.3868" gradientUnits="userSpaceOnUse">
<stop stop-color="#004324"/>
<stop offset="1" stop-color="#FF4F7A"/>
</linearGradient>
</defs>
</svg>
