<svg width="20" height="20" viewBox="0 0 20 20" fill="none" xmlns="http://www.w3.org/2000/svg">
<path fill-rule="evenodd" clip-rule="evenodd" d="M6.5 3C6.01675 3 5.625 3.39175 5.625 3.875V4.75H4.75C3.7835 4.75 3 5.5335 3 6.5V15.25C3 16.2165 3.7835 17 4.75 17H15.25C16.2165 17 17 16.2165 17 15.25V6.5C17 5.5335 16.2165 4.75 15.25 4.75H14.375V3.875C14.375 3.39175 13.9832 3 13.5 3C13.0168 3 12.625 3.39175 12.625 3.875V4.75H7.375V3.875C7.375 3.39175 6.98325 3 6.5 3ZM6.5 7.375C6.01675 7.375 5.625 7.76675 5.625 8.25C5.625 8.73325 6.01675 9.125 6.5 9.125H13.5C13.9832 9.125 14.375 8.73325 14.375 8.25C14.375 7.76675 13.9832 7.375 13.5 7.375H6.5Z" fill="#EAECF0"/>
</svg>
