<svg width="33" height="32" viewBox="0 0 33 32" fill="none" xmlns="http://www.w3.org/2000/svg">
<path d="M10.9 20.48C8.42578 20.48 6.42001 18.4742 6.42001 16C6.42001 13.8641 7.91473 12.0773 9.91521 11.6286C9.82671 11.2332 9.78001 10.8221 9.78001 10.4C9.78001 7.30719 12.2872 4.79999 15.38 4.79999C18.0896 4.79999 20.3498 6.72443 20.8682 9.28108C20.9054 9.28036 20.9427 9.27999 20.98 9.27999C24.0728 9.27999 26.58 11.7872 26.58 14.88C26.58 17.5892 24.6561 19.8491 22.1 20.368M13.14 23.84L16.5 27.2M16.5 27.2L19.86 23.84M16.5 27.2V13.76" stroke="#475467" stroke-width="1.67" stroke-linecap="round" stroke-linejoin="round"/>
</svg>
